<?xml version="1.0" encoding="utf-8" standalone="no"?>
<!DOCTYPE svg PUBLIC "-//W3C//DTD SVG 1.1//EN"
  "http://www.w3.org/Graphics/SVG/1.1/DTD/svg11.dtd">
<svg xmlns:xlink="http://www.w3.org/1999/xlink" width="1130.4pt" height="187.315625pt" viewBox="0 0 1130.4 187.315625" xmlns="http://www.w3.org/2000/svg" version="1.1">
 <metadata>
  <rdf:RDF xmlns:dc="http://purl.org/dc/elements/1.1/" xmlns:cc="http://creativecommons.org/ns#" xmlns:rdf="http://www.w3.org/1999/02/22-rdf-syntax-ns#">
   <cc:Work>
    <dc:type rdf:resource="http://purl.org/dc/dcmitype/StillImage"/>
    <dc:date>2025-11-13T19:12:25.241804</dc:date>
    <dc:format>image/svg+xml</dc:format>
    <dc:creator>
     <cc:Agent>
      <dc:title>Matplotlib v3.10.3, https://matplotlib.org/</dc:title>
     </cc:Agent>
    </dc:creator>
   </cc:Work>
  </rdf:RDF>
 </metadata>
 <defs>
  <style type="text/css">*{stroke-linejoin: round; stroke-linecap: butt}</style>
 </defs>
 <g id="figure_1">
  <g id="patch_1">
   <path d="M 0 187.315625 
L 1130.4 187.315625 
L 1130.4 0 
L 0 0 
z
" style="fill: #ffffff"/>
  </g>
  <g id="axes_1">
   <g id="patch_2">
    <path d="M 35.1 155.167625 
L 157.86 155.167625 
Q 180.18 155.167625 180.18 152.395625 
L 180.18 69.235625 
Q 180.18 66.463625 157.86 66.463625 
L 35.1 66.463625 
Q 12.78 66.463625 12.78 69.235625 
L 12.78 152.395625 
Q 12.78 155.167625 35.1 155.167625 
z
" clip-path="url(#p70d0ec9183)" style="fill: #08a1d9; opacity: 0.1"/>
   </g>
   <g id="patch_3">
    <path d="M 258.3 155.167625 
L 381.06 155.167625 
Q 403.38 155.167625 403.38 152.395625 
L 403.38 69.235625 
Q 403.38 66.463625 381.06 66.463625 
L 258.3 66.463625 
Q 235.98 66.463625 235.98 69.235625 
L 235.98 152.395625 
Q 235.98 155.167625 258.3 155.167625 
z
" clip-path="url(#p70d0ec9183)" style="fill: #08a1d9; opacity: 0.1"/>
   </g>
   <g id="patch_4">
    <path d="M 503.82 155.167625 
L 626.58 155.167625 
Q 648.9 155.167625 648.9 152.395625 
L 648.9 69.235625 
Q 648.9 66.463625 626.58 66.463625 
L 503.82 66.463625 
Q 481.5 66.463625 481.5 69.235625 
L 481.5 152.395625 
Q 481.5 155.167625 503.82 155.167625 
z
" clip-path="url(#p70d0ec9183)" style="fill: #08a1d9; opacity: 0.1"/>
   </g>
   <g id="patch_5">
    <path d="M 749.34 155.167625 
L 872.1 155.167625 
Q 894.42 155.167625 894.42 152.395625 
L 894.42 69.235625 
Q 894.42 66.463625 872.1 66.463625 
L 749.34 66.463625 
Q 727.02 66.463625 727.02 69.235625 
L 727.02 152.395625 
Q 727.02 155.167625 749.34 155.167625 
z
" clip-path="url(#p70d0ec9183)" style="fill: #08a1d9; opacity: 0.1"/>
   </g>
   <g id="patch_6">
    <path d="M 972.54 155.167625 
L 1095.3 155.167625 
Q 1117.62 155.167625 1117.62 152.395625 
L 1117.62 69.235625 
Q 1117.62 66.463625 1095.3 66.463625 
L 972.54 66.463625 
Q 950.22 66.463625 950.22 69.235625 
L 950.22 152.395625 
Q 950.22 155.167625 972.54 155.167625 
z
" clip-path="url(#p70d0ec9183)" style="fill: #08a1d9; opacity: 0.1"/>
   </g>
   <g id="text_1">
    <!-- 1. Data Ingestion -->
    <g transform="translate(44.474922 103.031453) scale(0.13 -0.13)">
     <defs>
      <path id="Arial-BoldMT-31" d="M 2519 0 
L 1641 0 
L 1641 3309 
Q 1159 2859 506 2644 
L 506 3441 
Q 850 3553 1253 3867 
Q 1656 4181 1806 4600 
L 2519 4600 
L 2519 0 
z
" transform="scale(0.015625)"/>
      <path id="Arial-BoldMT-2e" d="M 459 0 
L 459 878 
L 1338 878 
L 1338 0 
L 459 0 
z
" transform="scale(0.015625)"/>
      <path id="Arial-BoldMT-20" transform="scale(0.015625)"/>
      <path id="Arial-BoldMT-44" d="M 463 4581 
L 2153 4581 
Q 2725 4581 3025 4494 
Q 3428 4375 3715 4072 
Q 4003 3769 4153 3330 
Q 4303 2891 4303 2247 
Q 4303 1681 4163 1272 
Q 3991 772 3672 463 
Q 3431 228 3022 97 
Q 2716 0 2203 0 
L 463 0 
L 463 4581 
z
M 1388 3806 
L 1388 772 
L 2078 772 
Q 2466 772 2638 816 
Q 2863 872 3011 1006 
Q 3159 1141 3253 1448 
Q 3347 1756 3347 2288 
Q 3347 2819 3253 3103 
Q 3159 3388 2990 3547 
Q 2822 3706 2563 3763 
Q 2369 3806 1803 3806 
L 1388 3806 
z
" transform="scale(0.015625)"/>
      <path id="Arial-BoldMT-61" d="M 1116 2306 
L 319 2450 
Q 453 2931 781 3162 
Q 1109 3394 1756 3394 
Q 2344 3394 2631 3255 
Q 2919 3116 3036 2902 
Q 3153 2688 3153 2116 
L 3144 1091 
Q 3144 653 3186 445 
Q 3228 238 3344 0 
L 2475 0 
Q 2441 88 2391 259 
Q 2369 338 2359 363 
Q 2134 144 1878 34 
Q 1622 -75 1331 -75 
Q 819 -75 523 203 
Q 228 481 228 906 
Q 228 1188 362 1408 
Q 497 1628 739 1745 
Q 981 1863 1438 1950 
Q 2053 2066 2291 2166 
L 2291 2253 
Q 2291 2506 2166 2614 
Q 2041 2722 1694 2722 
Q 1459 2722 1328 2630 
Q 1197 2538 1116 2306 
z
M 2291 1594 
Q 2122 1538 1756 1459 
Q 1391 1381 1278 1306 
Q 1106 1184 1106 997 
Q 1106 813 1243 678 
Q 1381 544 1594 544 
Q 1831 544 2047 700 
Q 2206 819 2256 991 
Q 2291 1103 2291 1419 
L 2291 1594 
z
" transform="scale(0.015625)"/>
      <path id="Arial-BoldMT-74" d="M 1981 3319 
L 1981 2619 
L 1381 2619 
L 1381 1281 
Q 1381 875 1398 808 
Q 1416 741 1477 697 
Q 1538 653 1625 653 
Q 1747 653 1978 738 
L 2053 56 
Q 1747 -75 1359 -75 
Q 1122 -75 931 4 
Q 741 84 652 211 
Q 563 338 528 553 
Q 500 706 500 1172 
L 500 2619 
L 97 2619 
L 97 3319 
L 500 3319 
L 500 3978 
L 1381 4491 
L 1381 3319 
L 1981 3319 
z
" transform="scale(0.015625)"/>
      <path id="Arial-BoldMT-49" d="M 438 0 
L 438 4581 
L 1363 4581 
L 1363 0 
L 438 0 
z
" transform="scale(0.015625)"/>
      <path id="Arial-BoldMT-6e" d="M 3478 0 
L 2600 0 
L 2600 1694 
Q 2600 2231 2544 2389 
Q 2488 2547 2361 2634 
Q 2234 2722 2056 2722 
Q 1828 2722 1647 2597 
Q 1466 2472 1398 2265 
Q 1331 2059 1331 1503 
L 1331 0 
L 453 0 
L 453 3319 
L 1269 3319 
L 1269 2831 
Q 1703 3394 2363 3394 
Q 2653 3394 2893 3289 
Q 3134 3184 3257 3021 
Q 3381 2859 3429 2653 
Q 3478 2447 3478 2063 
L 3478 0 
z
" transform="scale(0.015625)"/>
      <path id="Arial-BoldMT-67" d="M 378 -219 
L 1381 -341 
Q 1406 -516 1497 -581 
Q 1622 -675 1891 -675 
Q 2234 -675 2406 -572 
Q 2522 -503 2581 -350 
Q 2622 -241 2622 53 
L 2622 538 
Q 2228 0 1628 0 
Q 959 0 569 566 
Q 263 1013 263 1678 
Q 263 2513 664 2953 
Q 1066 3394 1663 3394 
Q 2278 3394 2678 2853 
L 2678 3319 
L 3500 3319 
L 3500 341 
Q 3500 -247 3403 -537 
Q 3306 -828 3131 -993 
Q 2956 -1159 2664 -1253 
Q 2372 -1347 1925 -1347 
Q 1081 -1347 728 -1058 
Q 375 -769 375 -325 
Q 375 -281 378 -219 
z
M 1163 1728 
Q 1163 1200 1367 954 
Q 1572 709 1872 709 
Q 2194 709 2416 961 
Q 2638 1213 2638 1706 
Q 2638 2222 2425 2472 
Q 2213 2722 1888 2722 
Q 1572 2722 1367 2476 
Q 1163 2231 1163 1728 
z
" transform="scale(0.015625)"/>
      <path id="Arial-BoldMT-65" d="M 2381 1056 
L 3256 909 
Q 3088 428 2723 176 
Q 2359 -75 1813 -75 
Q 947 -75 531 491 
Q 203 944 203 1634 
Q 203 2459 634 2926 
Q 1066 3394 1725 3394 
Q 2466 3394 2894 2905 
Q 3322 2416 3303 1406 
L 1103 1406 
Q 1113 1016 1316 798 
Q 1519 581 1822 581 
Q 2028 581 2168 693 
Q 2309 806 2381 1056 
z
M 2431 1944 
Q 2422 2325 2234 2523 
Q 2047 2722 1778 2722 
Q 1491 2722 1303 2513 
Q 1116 2303 1119 1944 
L 2431 1944 
z
" transform="scale(0.015625)"/>
      <path id="Arial-BoldMT-73" d="M 150 947 
L 1031 1081 
Q 1088 825 1259 692 
Q 1431 559 1741 559 
Q 2081 559 2253 684 
Q 2369 772 2369 919 
Q 2369 1019 2306 1084 
Q 2241 1147 2013 1200 
Q 950 1434 666 1628 
Q 272 1897 272 2375 
Q 272 2806 612 3100 
Q 953 3394 1669 3394 
Q 2350 3394 2681 3172 
Q 3013 2950 3138 2516 
L 2309 2363 
Q 2256 2556 2107 2659 
Q 1959 2763 1684 2763 
Q 1338 2763 1188 2666 
Q 1088 2597 1088 2488 
Q 1088 2394 1175 2328 
Q 1294 2241 1995 2081 
Q 2697 1922 2975 1691 
Q 3250 1456 3250 1038 
Q 3250 581 2869 253 
Q 2488 -75 1741 -75 
Q 1063 -75 667 200 
Q 272 475 150 947 
z
" transform="scale(0.015625)"/>
      <path id="Arial-BoldMT-69" d="M 459 3769 
L 459 4581 
L 1338 4581 
L 1338 3769 
L 459 3769 
z
M 459 0 
L 459 3319 
L 1338 3319 
L 1338 0 
L 459 0 
z
" transform="scale(0.015625)"/>
      <path id="Arial-BoldMT-6f" d="M 256 1706 
Q 256 2144 472 2553 
Q 688 2963 1083 3178 
Q 1478 3394 1966 3394 
Q 2719 3394 3200 2905 
Q 3681 2416 3681 1669 
Q 3681 916 3195 420 
Q 2709 -75 1972 -75 
Q 1516 -75 1102 131 
Q 688 338 472 736 
Q 256 1134 256 1706 
z
M 1156 1659 
Q 1156 1166 1390 903 
Q 1625 641 1969 641 
Q 2313 641 2545 903 
Q 2778 1166 2778 1666 
Q 2778 2153 2545 2415 
Q 2313 2678 1969 2678 
Q 1625 2678 1390 2415 
Q 1156 2153 1156 1659 
z
" transform="scale(0.015625)"/>
     </defs>
     <use xlink:href="#Arial-BoldMT-31"/>
     <use xlink:href="#Arial-BoldMT-2e" transform="translate(55.615234 0)"/>
     <use xlink:href="#Arial-BoldMT-20" transform="translate(83.398438 0)"/>
     <use xlink:href="#Arial-BoldMT-44" transform="translate(111.181641 0)"/>
     <use xlink:href="#Arial-BoldMT-61" transform="translate(183.398438 0)"/>
     <use xlink:href="#Arial-BoldMT-74" transform="translate(239.013672 0)"/>
     <use xlink:href="#Arial-BoldMT-61" transform="translate(272.314453 0)"/>
     <use xlink:href="#Arial-BoldMT-20" transform="translate(327.929688 0)"/>
     <use xlink:href="#Arial-BoldMT-49" transform="translate(355.712891 0)"/>
     <use xlink:href="#Arial-BoldMT-6e" transform="translate(383.496094 0)"/>
     <use xlink:href="#Arial-BoldMT-67" transform="translate(444.580078 0)"/>
     <use xlink:href="#Arial-BoldMT-65" transform="translate(505.664062 0)"/>
     <use xlink:href="#Arial-BoldMT-73" transform="translate(561.279297 0)"/>
     <use xlink:href="#Arial-BoldMT-74" transform="translate(616.894531 0)"/>
     <use xlink:href="#Arial-BoldMT-69" transform="translate(650.195312 0)"/>
     <use xlink:href="#Arial-BoldMT-6f" transform="translate(677.978516 0)"/>
     <use xlink:href="#Arial-BoldMT-6e" transform="translate(739.0625 0)"/>
    </g>
   </g>
   <g id="text_2">
    <!-- Raw CPS Microdata -->
    <g style="fill: #333333" transform="translate(46.965391 123.528359) scale(0.11 -0.11)">
     <defs>
      <path id="ArialMT-52" d="M 503 0 
L 503 4581 
L 2534 4581 
Q 3147 4581 3465 4457 
Q 3784 4334 3975 4021 
Q 4166 3709 4166 3331 
Q 4166 2844 3850 2509 
Q 3534 2175 2875 2084 
Q 3116 1969 3241 1856 
Q 3506 1613 3744 1247 
L 4541 0 
L 3778 0 
L 3172 953 
Q 2906 1366 2734 1584 
Q 2563 1803 2427 1890 
Q 2291 1978 2150 2013 
Q 2047 2034 1813 2034 
L 1109 2034 
L 1109 0 
L 503 0 
z
M 1109 2559 
L 2413 2559 
Q 2828 2559 3062 2645 
Q 3297 2731 3419 2920 
Q 3541 3109 3541 3331 
Q 3541 3656 3305 3865 
Q 3069 4075 2559 4075 
L 1109 4075 
L 1109 2559 
z
" transform="scale(0.015625)"/>
      <path id="ArialMT-61" d="M 2588 409 
Q 2275 144 1986 34 
Q 1697 -75 1366 -75 
Q 819 -75 525 192 
Q 231 459 231 875 
Q 231 1119 342 1320 
Q 453 1522 633 1644 
Q 813 1766 1038 1828 
Q 1203 1872 1538 1913 
Q 2219 1994 2541 2106 
Q 2544 2222 2544 2253 
Q 2544 2597 2384 2738 
Q 2169 2928 1744 2928 
Q 1347 2928 1158 2789 
Q 969 2650 878 2297 
L 328 2372 
Q 403 2725 575 2942 
Q 747 3159 1072 3276 
Q 1397 3394 1825 3394 
Q 2250 3394 2515 3294 
Q 2781 3194 2906 3042 
Q 3031 2891 3081 2659 
Q 3109 2516 3109 2141 
L 3109 1391 
Q 3109 606 3145 398 
Q 3181 191 3288 0 
L 2700 0 
Q 2613 175 2588 409 
z
M 2541 1666 
Q 2234 1541 1622 1453 
Q 1275 1403 1131 1340 
Q 988 1278 909 1158 
Q 831 1038 831 891 
Q 831 666 1001 516 
Q 1172 366 1500 366 
Q 1825 366 2078 508 
Q 2331 650 2450 897 
Q 2541 1088 2541 1459 
L 2541 1666 
z
" transform="scale(0.015625)"/>
      <path id="ArialMT-77" d="M 1034 0 
L 19 3319 
L 600 3319 
L 1128 1403 
L 1325 691 
Q 1338 744 1497 1375 
L 2025 3319 
L 2603 3319 
L 3100 1394 
L 3266 759 
L 3456 1400 
L 4025 3319 
L 4572 3319 
L 3534 0 
L 2950 0 
L 2422 1988 
L 2294 2553 
L 1622 0 
L 1034 0 
z
" transform="scale(0.015625)"/>
      <path id="ArialMT-20" transform="scale(0.015625)"/>
      <path id="ArialMT-43" d="M 3763 1606 
L 4369 1453 
Q 4178 706 3683 314 
Q 3188 -78 2472 -78 
Q 1731 -78 1267 223 
Q 803 525 561 1097 
Q 319 1669 319 2325 
Q 319 3041 592 3573 
Q 866 4106 1370 4382 
Q 1875 4659 2481 4659 
Q 3169 4659 3637 4309 
Q 4106 3959 4291 3325 
L 3694 3184 
Q 3534 3684 3231 3912 
Q 2928 4141 2469 4141 
Q 1941 4141 1586 3887 
Q 1231 3634 1087 3207 
Q 944 2781 944 2328 
Q 944 1744 1114 1308 
Q 1284 872 1643 656 
Q 2003 441 2422 441 
Q 2931 441 3284 734 
Q 3638 1028 3763 1606 
z
" transform="scale(0.015625)"/>
      <path id="ArialMT-50" d="M 494 0 
L 494 4581 
L 2222 4581 
Q 2678 4581 2919 4538 
Q 3256 4481 3484 4323 
Q 3713 4166 3852 3881 
Q 3991 3597 3991 3256 
Q 3991 2672 3619 2267 
Q 3247 1863 2275 1863 
L 1100 1863 
L 1100 0 
L 494 0 
z
M 1100 2403 
L 2284 2403 
Q 2872 2403 3119 2622 
Q 3366 2841 3366 3238 
Q 3366 3525 3220 3729 
Q 3075 3934 2838 4000 
Q 2684 4041 2272 4041 
L 1100 4041 
L 1100 2403 
z
" transform="scale(0.015625)"/>
      <path id="ArialMT-53" d="M 288 1472 
L 859 1522 
Q 900 1178 1048 958 
Q 1197 738 1509 602 
Q 1822 466 2213 466 
Q 2559 466 2825 569 
Q 3091 672 3220 851 
Q 3350 1031 3350 1244 
Q 3350 1459 3225 1620 
Q 3100 1781 2813 1891 
Q 2628 1963 1997 2114 
Q 1366 2266 1113 2400 
Q 784 2572 623 2826 
Q 463 3081 463 3397 
Q 463 3744 659 4045 
Q 856 4347 1234 4503 
Q 1613 4659 2075 4659 
Q 2584 4659 2973 4495 
Q 3363 4331 3572 4012 
Q 3781 3694 3797 3291 
L 3216 3247 
Q 3169 3681 2898 3903 
Q 2628 4125 2100 4125 
Q 1550 4125 1298 3923 
Q 1047 3722 1047 3438 
Q 1047 3191 1225 3031 
Q 1400 2872 2139 2705 
Q 2878 2538 3153 2413 
Q 3553 2228 3743 1945 
Q 3934 1663 3934 1294 
Q 3934 928 3725 604 
Q 3516 281 3123 101 
Q 2731 -78 2241 -78 
Q 1619 -78 1198 103 
Q 778 284 539 648 
Q 300 1013 288 1472 
z
" transform="scale(0.015625)"/>
      <path id="ArialMT-4d" d="M 475 0 
L 475 4581 
L 1388 4581 
L 2472 1338 
Q 2622 884 2691 659 
Q 2769 909 2934 1394 
L 4031 4581 
L 4847 4581 
L 4847 0 
L 4263 0 
L 4263 3834 
L 2931 0 
L 2384 0 
L 1059 3900 
L 1059 0 
L 475 0 
z
" transform="scale(0.015625)"/>
      <path id="ArialMT-69" d="M 425 3934 
L 425 4581 
L 988 4581 
L 988 3934 
L 425 3934 
z
M 425 0 
L 425 3319 
L 988 3319 
L 988 0 
L 425 0 
z
" transform="scale(0.015625)"/>
      <path id="ArialMT-63" d="M 2588 1216 
L 3141 1144 
Q 3050 572 2676 248 
Q 2303 -75 1759 -75 
Q 1078 -75 664 370 
Q 250 816 250 1647 
Q 250 2184 428 2587 
Q 606 2991 970 3192 
Q 1334 3394 1763 3394 
Q 2303 3394 2647 3120 
Q 2991 2847 3088 2344 
L 2541 2259 
Q 2463 2594 2264 2762 
Q 2066 2931 1784 2931 
Q 1359 2931 1093 2626 
Q 828 2322 828 1663 
Q 828 994 1084 691 
Q 1341 388 1753 388 
Q 2084 388 2306 591 
Q 2528 794 2588 1216 
z
" transform="scale(0.015625)"/>
      <path id="ArialMT-72" d="M 416 0 
L 416 3319 
L 922 3319 
L 922 2816 
Q 1116 3169 1280 3281 
Q 1444 3394 1641 3394 
Q 1925 3394 2219 3213 
L 2025 2691 
Q 1819 2813 1613 2813 
Q 1428 2813 1281 2702 
Q 1134 2591 1072 2394 
Q 978 2094 978 1738 
L 978 0 
L 416 0 
z
" transform="scale(0.015625)"/>
      <path id="ArialMT-6f" d="M 213 1659 
Q 213 2581 725 3025 
Q 1153 3394 1769 3394 
Q 2453 3394 2887 2945 
Q 3322 2497 3322 1706 
Q 3322 1066 3130 698 
Q 2938 331 2570 128 
Q 2203 -75 1769 -75 
Q 1072 -75 642 372 
Q 213 819 213 1659 
z
M 791 1659 
Q 791 1022 1069 705 
Q 1347 388 1769 388 
Q 2188 388 2466 706 
Q 2744 1025 2744 1678 
Q 2744 2294 2464 2611 
Q 2184 2928 1769 2928 
Q 1347 2928 1069 2612 
Q 791 2297 791 1659 
z
" transform="scale(0.015625)"/>
      <path id="ArialMT-64" d="M 2575 0 
L 2575 419 
Q 2259 -75 1647 -75 
Q 1250 -75 917 144 
Q 584 363 401 755 
Q 219 1147 219 1656 
Q 219 2153 384 2558 
Q 550 2963 881 3178 
Q 1213 3394 1622 3394 
Q 1922 3394 2156 3267 
Q 2391 3141 2538 2938 
L 2538 4581 
L 3097 4581 
L 3097 0 
L 2575 0 
z
M 797 1656 
Q 797 1019 1065 703 
Q 1334 388 1700 388 
Q 2069 388 2326 689 
Q 2584 991 2584 1609 
Q 2584 2291 2321 2609 
Q 2059 2928 1675 2928 
Q 1300 2928 1048 2622 
Q 797 2316 797 1656 
z
" transform="scale(0.015625)"/>
      <path id="ArialMT-74" d="M 1650 503 
L 1731 6 
Q 1494 -44 1306 -44 
Q 1000 -44 831 53 
Q 663 150 594 308 
Q 525 466 525 972 
L 525 2881 
L 113 2881 
L 113 3319 
L 525 3319 
L 525 4141 
L 1084 4478 
L 1084 3319 
L 1650 3319 
L 1650 2881 
L 1084 2881 
L 1084 941 
Q 1084 700 1114 631 
Q 1144 563 1211 522 
Q 1278 481 1403 481 
Q 1497 481 1650 503 
z
" transform="scale(0.015625)"/>
     </defs>
     <use xlink:href="#ArialMT-52"/>
     <use xlink:href="#ArialMT-61" transform="translate(72.216797 0)"/>
     <use xlink:href="#ArialMT-77" transform="translate(127.832031 0)"/>
     <use xlink:href="#ArialMT-20" transform="translate(200.048828 0)"/>
     <use xlink:href="#ArialMT-43" transform="translate(227.832031 0)"/>
     <use xlink:href="#ArialMT-50" transform="translate(300.048828 0)"/>
     <use xlink:href="#ArialMT-53" transform="translate(366.748047 0)"/>
     <use xlink:href="#ArialMT-20" transform="translate(433.447266 0)"/>
     <use xlink:href="#ArialMT-4d" transform="translate(461.230469 0)"/>
     <use xlink:href="#ArialMT-69" transform="translate(544.53125 0)"/>
     <use xlink:href="#ArialMT-63" transform="translate(566.748047 0)"/>
     <use xlink:href="#ArialMT-72" transform="translate(616.748047 0)"/>
     <use xlink:href="#ArialMT-6f" transform="translate(650.048828 0)"/>
     <use xlink:href="#ArialMT-64" transform="translate(705.664062 0)"/>
     <use xlink:href="#ArialMT-61" transform="translate(761.279297 0)"/>
     <use xlink:href="#ArialMT-74" transform="translate(816.894531 0)"/>
     <use xlink:href="#ArialMT-61" transform="translate(844.677734 0)"/>
    </g>
    <!-- (2018 &amp; 2021) -->
    <g style="fill: #333333" transform="translate(61.624609 136.925328) scale(0.11 -0.11)">
     <defs>
      <path id="ArialMT-28" d="M 1497 -1347 
Q 1031 -759 709 28 
Q 388 816 388 1659 
Q 388 2403 628 3084 
Q 909 3875 1497 4659 
L 1900 4659 
Q 1522 4009 1400 3731 
Q 1209 3300 1100 2831 
Q 966 2247 966 1656 
Q 966 153 1900 -1347 
L 1497 -1347 
z
" transform="scale(0.015625)"/>
      <path id="ArialMT-32" d="M 3222 541 
L 3222 0 
L 194 0 
Q 188 203 259 391 
Q 375 700 629 1000 
Q 884 1300 1366 1694 
Q 2113 2306 2375 2664 
Q 2638 3022 2638 3341 
Q 2638 3675 2398 3904 
Q 2159 4134 1775 4134 
Q 1369 4134 1125 3890 
Q 881 3647 878 3216 
L 300 3275 
Q 359 3922 746 4261 
Q 1134 4600 1788 4600 
Q 2447 4600 2831 4234 
Q 3216 3869 3216 3328 
Q 3216 3053 3103 2787 
Q 2991 2522 2730 2228 
Q 2469 1934 1863 1422 
Q 1356 997 1212 845 
Q 1069 694 975 541 
L 3222 541 
z
" transform="scale(0.015625)"/>
      <path id="ArialMT-30" d="M 266 2259 
Q 266 3072 433 3567 
Q 600 4063 929 4331 
Q 1259 4600 1759 4600 
Q 2128 4600 2406 4451 
Q 2684 4303 2865 4023 
Q 3047 3744 3150 3342 
Q 3253 2941 3253 2259 
Q 3253 1453 3087 958 
Q 2922 463 2592 192 
Q 2263 -78 1759 -78 
Q 1097 -78 719 397 
Q 266 969 266 2259 
z
M 844 2259 
Q 844 1131 1108 757 
Q 1372 384 1759 384 
Q 2147 384 2411 759 
Q 2675 1134 2675 2259 
Q 2675 3391 2411 3762 
Q 2147 4134 1753 4134 
Q 1366 4134 1134 3806 
Q 844 3388 844 2259 
z
" transform="scale(0.015625)"/>
      <path id="ArialMT-31" d="M 2384 0 
L 1822 0 
L 1822 3584 
Q 1619 3391 1289 3197 
Q 959 3003 697 2906 
L 697 3450 
Q 1169 3672 1522 3987 
Q 1875 4303 2022 4600 
L 2384 4600 
L 2384 0 
z
" transform="scale(0.015625)"/>
      <path id="ArialMT-38" d="M 1131 2484 
Q 781 2613 612 2850 
Q 444 3088 444 3419 
Q 444 3919 803 4259 
Q 1163 4600 1759 4600 
Q 2359 4600 2725 4251 
Q 3091 3903 3091 3403 
Q 3091 3084 2923 2848 
Q 2756 2613 2416 2484 
Q 2838 2347 3058 2040 
Q 3278 1734 3278 1309 
Q 3278 722 2862 322 
Q 2447 -78 1769 -78 
Q 1091 -78 675 323 
Q 259 725 259 1325 
Q 259 1772 486 2073 
Q 713 2375 1131 2484 
z
M 1019 3438 
Q 1019 3113 1228 2906 
Q 1438 2700 1772 2700 
Q 2097 2700 2305 2904 
Q 2513 3109 2513 3406 
Q 2513 3716 2298 3927 
Q 2084 4138 1766 4138 
Q 1444 4138 1231 3931 
Q 1019 3725 1019 3438 
z
M 838 1322 
Q 838 1081 952 856 
Q 1066 631 1291 507 
Q 1516 384 1775 384 
Q 2178 384 2440 643 
Q 2703 903 2703 1303 
Q 2703 1709 2433 1975 
Q 2163 2241 1756 2241 
Q 1359 2241 1098 1978 
Q 838 1716 838 1322 
z
" transform="scale(0.015625)"/>
      <path id="ArialMT-26" d="M 3041 541 
Q 2763 231 2434 76 
Q 2106 -78 1725 -78 
Q 1022 -78 609 397 
Q 275 784 275 1263 
Q 275 1688 548 2030 
Q 822 2372 1366 2631 
Q 1056 2988 953 3209 
Q 850 3431 850 3638 
Q 850 4050 1173 4354 
Q 1497 4659 1988 4659 
Q 2456 4659 2754 4371 
Q 3053 4084 3053 3681 
Q 3053 3028 2188 2566 
L 3009 1519 
Q 3150 1794 3228 2156 
L 3813 2031 
Q 3663 1431 3406 1044 
Q 3722 625 4122 341 
L 3744 -106 
Q 3403 113 3041 541 
z
M 1897 2928 
Q 2263 3144 2370 3306 
Q 2478 3469 2478 3666 
Q 2478 3900 2329 4048 
Q 2181 4197 1959 4197 
Q 1731 4197 1579 4050 
Q 1428 3903 1428 3691 
Q 1428 3584 1483 3467 
Q 1538 3350 1647 3219 
L 1897 2928 
z
M 2688 984 
L 1656 2263 
Q 1200 1991 1040 1758 
Q 881 1525 881 1297 
Q 881 1019 1103 719 
Q 1325 419 1731 419 
Q 1984 419 2254 576 
Q 2525 734 2688 984 
z
" transform="scale(0.015625)"/>
      <path id="ArialMT-29" d="M 791 -1347 
L 388 -1347 
Q 1322 153 1322 1656 
Q 1322 2244 1188 2822 
Q 1081 3291 891 3722 
Q 769 4003 388 4659 
L 791 4659 
Q 1378 3875 1659 3084 
Q 1900 2403 1900 1659 
Q 1900 816 1576 28 
Q 1253 -759 791 -1347 
z
" transform="scale(0.015625)"/>
     </defs>
     <use xlink:href="#ArialMT-28"/>
     <use xlink:href="#ArialMT-32" transform="translate(33.300781 0)"/>
     <use xlink:href="#ArialMT-30" transform="translate(88.916016 0)"/>
     <use xlink:href="#ArialMT-31" transform="translate(144.53125 0)"/>
     <use xlink:href="#ArialMT-38" transform="translate(200.146484 0)"/>
     <use xlink:href="#ArialMT-20" transform="translate(255.761719 0)"/>
     <use xlink:href="#ArialMT-26" transform="translate(283.544922 0)"/>
     <use xlink:href="#ArialMT-20" transform="translate(350.244141 0)"/>
     <use xlink:href="#ArialMT-32" transform="translate(378.027344 0)"/>
     <use xlink:href="#ArialMT-30" transform="translate(433.642578 0)"/>
     <use xlink:href="#ArialMT-32" transform="translate(489.257812 0)"/>
     <use xlink:href="#ArialMT-31" transform="translate(544.873047 0)"/>
     <use xlink:href="#ArialMT-29" transform="translate(600.488281 0)"/>
    </g>
   </g>
   <g id="patch_7">
    <path d="M 178.878 110.815625 
Q 208.08 110.815625 233.927898 110.815625 
" style="fill: none; stroke: #f96a1b; stroke-width: 3; stroke-linecap: round"/>
    <path d="M 226.727898 107.215625 
L 233.927898 110.815625 
L 226.727898 114.415625 
" style="fill: none; stroke: #f96a1b; stroke-width: 3; stroke-linecap: round"/>
   </g>
   <g id="text_3">
    <!-- 2. Data Engineering -->
    <g transform="translate(259.003516 103.031453) scale(0.13 -0.13)">
     <defs>
      <path id="Arial-BoldMT-32" d="M 3238 816 
L 3238 0 
L 159 0 
Q 209 463 459 877 
Q 709 1291 1447 1975 
Q 2041 2528 2175 2725 
Q 2356 2997 2356 3263 
Q 2356 3556 2198 3714 
Q 2041 3872 1763 3872 
Q 1488 3872 1325 3706 
Q 1163 3541 1138 3156 
L 263 3244 
Q 341 3969 753 4284 
Q 1166 4600 1784 4600 
Q 2463 4600 2850 4234 
Q 3238 3869 3238 3325 
Q 3238 3016 3127 2736 
Q 3016 2456 2775 2150 
Q 2616 1947 2200 1565 
Q 1784 1184 1673 1059 
Q 1563 934 1494 816 
L 3238 816 
z
" transform="scale(0.015625)"/>
      <path id="Arial-BoldMT-45" d="M 466 0 
L 466 4581 
L 3863 4581 
L 3863 3806 
L 1391 3806 
L 1391 2791 
L 3691 2791 
L 3691 2019 
L 1391 2019 
L 1391 772 
L 3950 772 
L 3950 0 
L 466 0 
z
" transform="scale(0.015625)"/>
      <path id="Arial-BoldMT-72" d="M 1300 0 
L 422 0 
L 422 3319 
L 1238 3319 
L 1238 2847 
Q 1447 3181 1614 3287 
Q 1781 3394 1994 3394 
Q 2294 3394 2572 3228 
L 2300 2463 
Q 2078 2606 1888 2606 
Q 1703 2606 1575 2504 
Q 1447 2403 1373 2137 
Q 1300 1872 1300 1025 
L 1300 0 
z
" transform="scale(0.015625)"/>
     </defs>
     <use xlink:href="#Arial-BoldMT-32"/>
     <use xlink:href="#Arial-BoldMT-2e" transform="translate(55.615234 0)"/>
     <use xlink:href="#Arial-BoldMT-20" transform="translate(83.398438 0)"/>
     <use xlink:href="#Arial-BoldMT-44" transform="translate(111.181641 0)"/>
     <use xlink:href="#Arial-BoldMT-61" transform="translate(183.398438 0)"/>
     <use xlink:href="#Arial-BoldMT-74" transform="translate(239.013672 0)"/>
     <use xlink:href="#Arial-BoldMT-61" transform="translate(272.314453 0)"/>
     <use xlink:href="#Arial-BoldMT-20" transform="translate(327.929688 0)"/>
     <use xlink:href="#Arial-BoldMT-45" transform="translate(355.712891 0)"/>
     <use xlink:href="#Arial-BoldMT-6e" transform="translate(422.412109 0)"/>
     <use xlink:href="#Arial-BoldMT-67" transform="translate(483.496094 0)"/>
     <use xlink:href="#Arial-BoldMT-69" transform="translate(544.580078 0)"/>
     <use xlink:href="#Arial-BoldMT-6e" transform="translate(572.363281 0)"/>
     <use xlink:href="#Arial-BoldMT-65" transform="translate(633.447266 0)"/>
     <use xlink:href="#Arial-BoldMT-65" transform="translate(689.0625 0)"/>
     <use xlink:href="#Arial-BoldMT-72" transform="translate(744.677734 0)"/>
     <use xlink:href="#Arial-BoldMT-69" transform="translate(783.59375 0)"/>
     <use xlink:href="#Arial-BoldMT-6e" transform="translate(811.376953 0)"/>
     <use xlink:href="#Arial-BoldMT-67" transform="translate(872.460938 0)"/>
    </g>
   </g>
   <g id="text_4">
    <!-- Filter, Match (CPSIDP) -->
    <g style="fill: #333333" transform="translate(264.060391 116.861844) scale(0.11 -0.11)">
     <defs>
      <path id="ArialMT-46" d="M 525 0 
L 525 4581 
L 3616 4581 
L 3616 4041 
L 1131 4041 
L 1131 2622 
L 3281 2622 
L 3281 2081 
L 1131 2081 
L 1131 0 
L 525 0 
z
" transform="scale(0.015625)"/>
      <path id="ArialMT-6c" d="M 409 0 
L 409 4581 
L 972 4581 
L 972 0 
L 409 0 
z
" transform="scale(0.015625)"/>
      <path id="ArialMT-65" d="M 2694 1069 
L 3275 997 
Q 3138 488 2766 206 
Q 2394 -75 1816 -75 
Q 1088 -75 661 373 
Q 234 822 234 1631 
Q 234 2469 665 2931 
Q 1097 3394 1784 3394 
Q 2450 3394 2872 2941 
Q 3294 2488 3294 1666 
Q 3294 1616 3291 1516 
L 816 1516 
Q 847 969 1125 678 
Q 1403 388 1819 388 
Q 2128 388 2347 550 
Q 2566 713 2694 1069 
z
M 847 1978 
L 2700 1978 
Q 2663 2397 2488 2606 
Q 2219 2931 1791 2931 
Q 1403 2931 1139 2672 
Q 875 2413 847 1978 
z
" transform="scale(0.015625)"/>
      <path id="ArialMT-2c" d="M 569 0 
L 569 641 
L 1209 641 
L 1209 0 
Q 1209 -353 1084 -570 
Q 959 -788 688 -906 
L 531 -666 
Q 709 -588 793 -436 
Q 878 -284 888 0 
L 569 0 
z
" transform="scale(0.015625)"/>
      <path id="ArialMT-68" d="M 422 0 
L 422 4581 
L 984 4581 
L 984 2938 
Q 1378 3394 1978 3394 
Q 2347 3394 2619 3248 
Q 2891 3103 3008 2847 
Q 3125 2591 3125 2103 
L 3125 0 
L 2563 0 
L 2563 2103 
Q 2563 2525 2380 2717 
Q 2197 2909 1863 2909 
Q 1613 2909 1392 2779 
Q 1172 2650 1078 2428 
Q 984 2206 984 1816 
L 984 0 
L 422 0 
z
" transform="scale(0.015625)"/>
      <path id="ArialMT-49" d="M 597 0 
L 597 4581 
L 1203 4581 
L 1203 0 
L 597 0 
z
" transform="scale(0.015625)"/>
      <path id="ArialMT-44" d="M 494 0 
L 494 4581 
L 2072 4581 
Q 2606 4581 2888 4516 
Q 3281 4425 3559 4188 
Q 3922 3881 4101 3404 
Q 4281 2928 4281 2316 
Q 4281 1794 4159 1391 
Q 4038 988 3847 723 
Q 3656 459 3429 307 
Q 3203 156 2883 78 
Q 2563 0 2147 0 
L 494 0 
z
M 1100 541 
L 2078 541 
Q 2531 541 2789 625 
Q 3047 709 3200 863 
Q 3416 1078 3536 1442 
Q 3656 1806 3656 2325 
Q 3656 3044 3420 3430 
Q 3184 3816 2847 3947 
Q 2603 4041 2063 4041 
L 1100 4041 
L 1100 541 
z
" transform="scale(0.015625)"/>
     </defs>
     <use xlink:href="#ArialMT-46"/>
     <use xlink:href="#ArialMT-69" transform="translate(61.083984 0)"/>
     <use xlink:href="#ArialMT-6c" transform="translate(83.300781 0)"/>
     <use xlink:href="#ArialMT-74" transform="translate(105.517578 0)"/>
     <use xlink:href="#ArialMT-65" transform="translate(133.300781 0)"/>
     <use xlink:href="#ArialMT-72" transform="translate(188.916016 0)"/>
     <use xlink:href="#ArialMT-2c" transform="translate(216.716797 0)"/>
     <use xlink:href="#ArialMT-20" transform="translate(244.5 0)"/>
     <use xlink:href="#ArialMT-4d" transform="translate(272.283203 0)"/>
     <use xlink:href="#ArialMT-61" transform="translate(355.583984 0)"/>
     <use xlink:href="#ArialMT-74" transform="translate(411.199219 0)"/>
     <use xlink:href="#ArialMT-63" transform="translate(438.982422 0)"/>
     <use xlink:href="#ArialMT-68" transform="translate(488.982422 0)"/>
     <use xlink:href="#ArialMT-20" transform="translate(544.597656 0)"/>
     <use xlink:href="#ArialMT-28" transform="translate(572.380859 0)"/>
     <use xlink:href="#ArialMT-43" transform="translate(605.681641 0)"/>
     <use xlink:href="#ArialMT-50" transform="translate(677.898438 0)"/>
     <use xlink:href="#ArialMT-53" transform="translate(744.597656 0)"/>
     <use xlink:href="#ArialMT-49" transform="translate(811.296875 0)"/>
     <use xlink:href="#ArialMT-44" transform="translate(839.080078 0)"/>
     <use xlink:href="#ArialMT-50" transform="translate(911.296875 0)"/>
     <use xlink:href="#ArialMT-29" transform="translate(977.996094 0)"/>
    </g>
    <!-- Engineer 'U-to-E' Flow -->
    <g style="fill: #333333" transform="translate(265.007422 130.200031) scale(0.11 -0.11)">
     <defs>
      <path id="ArialMT-45" d="M 506 0 
L 506 4581 
L 3819 4581 
L 3819 4041 
L 1113 4041 
L 1113 2638 
L 3647 2638 
L 3647 2100 
L 1113 2100 
L 1113 541 
L 3925 541 
L 3925 0 
L 506 0 
z
" transform="scale(0.015625)"/>
      <path id="ArialMT-6e" d="M 422 0 
L 422 3319 
L 928 3319 
L 928 2847 
Q 1294 3394 1984 3394 
Q 2284 3394 2536 3286 
Q 2788 3178 2913 3003 
Q 3038 2828 3088 2588 
Q 3119 2431 3119 2041 
L 3119 0 
L 2556 0 
L 2556 2019 
Q 2556 2363 2490 2533 
Q 2425 2703 2258 2804 
Q 2091 2906 1866 2906 
Q 1506 2906 1245 2678 
Q 984 2450 984 1813 
L 984 0 
L 422 0 
z
" transform="scale(0.015625)"/>
      <path id="ArialMT-67" d="M 319 -275 
L 866 -356 
Q 900 -609 1056 -725 
Q 1266 -881 1628 -881 
Q 2019 -881 2231 -725 
Q 2444 -569 2519 -288 
Q 2563 -116 2559 434 
Q 2191 0 1641 0 
Q 956 0 581 494 
Q 206 988 206 1678 
Q 206 2153 378 2554 
Q 550 2956 876 3175 
Q 1203 3394 1644 3394 
Q 2231 3394 2613 2919 
L 2613 3319 
L 3131 3319 
L 3131 450 
Q 3131 -325 2973 -648 
Q 2816 -972 2473 -1159 
Q 2131 -1347 1631 -1347 
Q 1038 -1347 672 -1080 
Q 306 -813 319 -275 
z
M 784 1719 
Q 784 1066 1043 766 
Q 1303 466 1694 466 
Q 2081 466 2343 764 
Q 2606 1063 2606 1700 
Q 2606 2309 2336 2618 
Q 2066 2928 1684 2928 
Q 1309 2928 1046 2623 
Q 784 2319 784 1719 
z
" transform="scale(0.015625)"/>
      <path id="ArialMT-27" d="M 425 2959 
L 281 3816 
L 281 4581 
L 922 4581 
L 922 3816 
L 772 2959 
L 425 2959 
z
" transform="scale(0.015625)"/>
      <path id="ArialMT-55" d="M 3500 4581 
L 4106 4581 
L 4106 1934 
Q 4106 1244 3950 837 
Q 3794 431 3386 176 
Q 2978 -78 2316 -78 
Q 1672 -78 1262 144 
Q 853 366 678 786 
Q 503 1206 503 1934 
L 503 4581 
L 1109 4581 
L 1109 1938 
Q 1109 1341 1220 1058 
Q 1331 775 1601 622 
Q 1872 469 2263 469 
Q 2931 469 3215 772 
Q 3500 1075 3500 1938 
L 3500 4581 
z
" transform="scale(0.015625)"/>
      <path id="ArialMT-2d" d="M 203 1375 
L 203 1941 
L 1931 1941 
L 1931 1375 
L 203 1375 
z
" transform="scale(0.015625)"/>
     </defs>
     <use xlink:href="#ArialMT-45"/>
     <use xlink:href="#ArialMT-6e" transform="translate(66.699219 0)"/>
     <use xlink:href="#ArialMT-67" transform="translate(122.314453 0)"/>
     <use xlink:href="#ArialMT-69" transform="translate(177.929688 0)"/>
     <use xlink:href="#ArialMT-6e" transform="translate(200.146484 0)"/>
     <use xlink:href="#ArialMT-65" transform="translate(255.761719 0)"/>
     <use xlink:href="#ArialMT-65" transform="translate(311.376953 0)"/>
     <use xlink:href="#ArialMT-72" transform="translate(366.992188 0)"/>
     <use xlink:href="#ArialMT-20" transform="translate(400.292969 0)"/>
     <use xlink:href="#ArialMT-27" transform="translate(428.076172 0)"/>
     <use xlink:href="#ArialMT-55" transform="translate(447.167969 0)"/>
     <use xlink:href="#ArialMT-2d" transform="translate(519.384766 0)"/>
     <use xlink:href="#ArialMT-74" transform="translate(552.685547 0)"/>
     <use xlink:href="#ArialMT-6f" transform="translate(580.46875 0)"/>
     <use xlink:href="#ArialMT-2d" transform="translate(636.083984 0)"/>
     <use xlink:href="#ArialMT-45" transform="translate(669.384766 0)"/>
     <use xlink:href="#ArialMT-27" transform="translate(736.083984 0)"/>
     <use xlink:href="#ArialMT-20" transform="translate(755.175781 0)"/>
     <use xlink:href="#ArialMT-46" transform="translate(782.958984 0)"/>
     <use xlink:href="#ArialMT-6c" transform="translate(844.042969 0)"/>
     <use xlink:href="#ArialMT-6f" transform="translate(866.259766 0)"/>
     <use xlink:href="#ArialMT-77" transform="translate(921.875 0)"/>
    </g>
    <!-- Define 'LowWage' Group -->
    <g style="fill: #333333" transform="translate(259.091484 143.725906) scale(0.11 -0.11)">
     <defs>
      <path id="ArialMT-66" d="M 556 0 
L 556 2881 
L 59 2881 
L 59 3319 
L 556 3319 
L 556 3672 
Q 556 4006 616 4169 
Q 697 4388 901 4523 
Q 1106 4659 1475 4659 
Q 1713 4659 2000 4603 
L 1916 4113 
Q 1741 4144 1584 4144 
Q 1328 4144 1222 4034 
Q 1116 3925 1116 3625 
L 1116 3319 
L 1763 3319 
L 1763 2881 
L 1116 2881 
L 1116 0 
L 556 0 
z
" transform="scale(0.015625)"/>
      <path id="ArialMT-4c" d="M 469 0 
L 469 4581 
L 1075 4581 
L 1075 541 
L 3331 541 
L 3331 0 
L 469 0 
z
" transform="scale(0.015625)"/>
      <path id="ArialMT-57" d="M 1294 0 
L 78 4581 
L 700 4581 
L 1397 1578 
Q 1509 1106 1591 641 
Q 1766 1375 1797 1488 
L 2669 4581 
L 3400 4581 
L 4056 2263 
Q 4303 1400 4413 641 
Q 4500 1075 4641 1638 
L 5359 4581 
L 5969 4581 
L 4713 0 
L 4128 0 
L 3163 3491 
Q 3041 3928 3019 4028 
Q 2947 3713 2884 3491 
L 1913 0 
L 1294 0 
z
" transform="scale(0.015625)"/>
      <path id="ArialMT-47" d="M 2638 1797 
L 2638 2334 
L 4578 2338 
L 4578 638 
Q 4131 281 3656 101 
Q 3181 -78 2681 -78 
Q 2006 -78 1454 211 
Q 903 500 622 1047 
Q 341 1594 341 2269 
Q 341 2938 620 3517 
Q 900 4097 1425 4378 
Q 1950 4659 2634 4659 
Q 3131 4659 3532 4498 
Q 3934 4338 4162 4050 
Q 4391 3763 4509 3300 
L 3963 3150 
Q 3859 3500 3706 3700 
Q 3553 3900 3268 4020 
Q 2984 4141 2638 4141 
Q 2222 4141 1919 4014 
Q 1616 3888 1430 3681 
Q 1244 3475 1141 3228 
Q 966 2803 966 2306 
Q 966 1694 1177 1281 
Q 1388 869 1791 669 
Q 2194 469 2647 469 
Q 3041 469 3416 620 
Q 3791 772 3984 944 
L 3984 1797 
L 2638 1797 
z
" transform="scale(0.015625)"/>
      <path id="ArialMT-75" d="M 2597 0 
L 2597 488 
Q 2209 -75 1544 -75 
Q 1250 -75 995 37 
Q 741 150 617 320 
Q 494 491 444 738 
Q 409 903 409 1263 
L 409 3319 
L 972 3319 
L 972 1478 
Q 972 1038 1006 884 
Q 1059 663 1231 536 
Q 1403 409 1656 409 
Q 1909 409 2131 539 
Q 2353 669 2445 892 
Q 2538 1116 2538 1541 
L 2538 3319 
L 3100 3319 
L 3100 0 
L 2597 0 
z
" transform="scale(0.015625)"/>
      <path id="ArialMT-70" d="M 422 -1272 
L 422 3319 
L 934 3319 
L 934 2888 
Q 1116 3141 1344 3267 
Q 1572 3394 1897 3394 
Q 2322 3394 2647 3175 
Q 2972 2956 3137 2557 
Q 3303 2159 3303 1684 
Q 3303 1175 3120 767 
Q 2938 359 2589 142 
Q 2241 -75 1856 -75 
Q 1575 -75 1351 44 
Q 1128 163 984 344 
L 984 -1272 
L 422 -1272 
z
M 931 1641 
Q 931 1000 1190 694 
Q 1450 388 1819 388 
Q 2194 388 2461 705 
Q 2728 1022 2728 1688 
Q 2728 2322 2467 2637 
Q 2206 2953 1844 2953 
Q 1484 2953 1207 2617 
Q 931 2281 931 1641 
z
" transform="scale(0.015625)"/>
     </defs>
     <use xlink:href="#ArialMT-44"/>
     <use xlink:href="#ArialMT-65" transform="translate(72.216797 0)"/>
     <use xlink:href="#ArialMT-66" transform="translate(127.832031 0)"/>
     <use xlink:href="#ArialMT-69" transform="translate(155.615234 0)"/>
     <use xlink:href="#ArialMT-6e" transform="translate(177.832031 0)"/>
     <use xlink:href="#ArialMT-65" transform="translate(233.447266 0)"/>
     <use xlink:href="#ArialMT-20" transform="translate(289.0625 0)"/>
     <use xlink:href="#ArialMT-27" transform="translate(316.845703 0)"/>
     <use xlink:href="#ArialMT-4c" transform="translate(335.9375 0)"/>
     <use xlink:href="#ArialMT-6f" transform="translate(391.552734 0)"/>
     <use xlink:href="#ArialMT-77" transform="translate(447.167969 0)"/>
     <use xlink:href="#ArialMT-57" transform="translate(519.384766 0)"/>
     <use xlink:href="#ArialMT-61" transform="translate(610.019531 0)"/>
     <use xlink:href="#ArialMT-67" transform="translate(665.634766 0)"/>
     <use xlink:href="#ArialMT-65" transform="translate(721.25 0)"/>
     <use xlink:href="#ArialMT-27" transform="translate(776.865234 0)"/>
     <use xlink:href="#ArialMT-20" transform="translate(795.957031 0)"/>
     <use xlink:href="#ArialMT-47" transform="translate(823.740234 0)"/>
     <use xlink:href="#ArialMT-72" transform="translate(901.523438 0)"/>
     <use xlink:href="#ArialMT-6f" transform="translate(934.824219 0)"/>
     <use xlink:href="#ArialMT-75" transform="translate(990.439453 0)"/>
     <use xlink:href="#ArialMT-70" transform="translate(1046.054688 0)"/>
    </g>
   </g>
   <g id="patch_8">
    <path d="M 402.078 110.815625 
Q 442.44 110.815625 479.447898 110.815625 
" style="fill: none; stroke: #f96a1b; stroke-width: 3; stroke-linecap: round"/>
    <path d="M 472.247898 107.215625 
L 479.447898 110.815625 
L 472.247898 114.415625 
" style="fill: none; stroke: #f96a1b; stroke-width: 3; stroke-linecap: round"/>
   </g>
   <g id="text_5">
    <!-- 3. Causal Model -->
    <g transform="translate(516.079297 103.097469) scale(0.13 -0.13)">
     <defs>
      <path id="Arial-BoldMT-33" d="M 241 1216 
L 1091 1319 
Q 1131 994 1309 822 
Q 1488 650 1741 650 
Q 2013 650 2198 856 
Q 2384 1063 2384 1413 
Q 2384 1744 2206 1937 
Q 2028 2131 1772 2131 
Q 1603 2131 1369 2066 
L 1466 2781 
Q 1822 2772 2009 2936 
Q 2197 3100 2197 3372 
Q 2197 3603 2059 3740 
Q 1922 3878 1694 3878 
Q 1469 3878 1309 3722 
Q 1150 3566 1116 3266 
L 306 3403 
Q 391 3819 561 4067 
Q 731 4316 1036 4458 
Q 1341 4600 1719 4600 
Q 2366 4600 2756 4188 
Q 3078 3850 3078 3425 
Q 3078 2822 2419 2463 
Q 2813 2378 3048 2084 
Q 3284 1791 3284 1375 
Q 3284 772 2843 347 
Q 2403 -78 1747 -78 
Q 1125 -78 715 280 
Q 306 638 241 1216 
z
" transform="scale(0.015625)"/>
      <path id="Arial-BoldMT-43" d="M 3397 1684 
L 4294 1400 
Q 4088 650 3608 286 
Q 3128 -78 2391 -78 
Q 1478 -78 890 545 
Q 303 1169 303 2250 
Q 303 3394 893 4026 
Q 1484 4659 2447 4659 
Q 3288 4659 3813 4163 
Q 4125 3869 4281 3319 
L 3366 3100 
Q 3284 3456 3026 3662 
Q 2769 3869 2400 3869 
Q 1891 3869 1573 3503 
Q 1256 3138 1256 2319 
Q 1256 1450 1568 1081 
Q 1881 713 2381 713 
Q 2750 713 3015 947 
Q 3281 1181 3397 1684 
z
" transform="scale(0.015625)"/>
      <path id="Arial-BoldMT-75" d="M 2644 0 
L 2644 497 
Q 2463 231 2167 78 
Q 1872 -75 1544 -75 
Q 1209 -75 943 72 
Q 678 219 559 484 
Q 441 750 441 1219 
L 441 3319 
L 1319 3319 
L 1319 1794 
Q 1319 1094 1367 936 
Q 1416 778 1544 686 
Q 1672 594 1869 594 
Q 2094 594 2272 717 
Q 2450 841 2515 1023 
Q 2581 1206 2581 1919 
L 2581 3319 
L 3459 3319 
L 3459 0 
L 2644 0 
z
" transform="scale(0.015625)"/>
      <path id="Arial-BoldMT-6c" d="M 459 0 
L 459 4581 
L 1338 4581 
L 1338 0 
L 459 0 
z
" transform="scale(0.015625)"/>
      <path id="Arial-BoldMT-4d" d="M 453 0 
L 453 4581 
L 1838 4581 
L 2669 1456 
L 3491 4581 
L 4878 4581 
L 4878 0 
L 4019 0 
L 4019 3606 
L 3109 0 
L 2219 0 
L 1313 3606 
L 1313 0 
L 453 0 
z
" transform="scale(0.015625)"/>
      <path id="Arial-BoldMT-64" d="M 3503 0 
L 2688 0 
L 2688 488 
Q 2484 203 2207 64 
Q 1931 -75 1650 -75 
Q 1078 -75 670 386 
Q 263 847 263 1672 
Q 263 2516 659 2955 
Q 1056 3394 1663 3394 
Q 2219 3394 2625 2931 
L 2625 4581 
L 3503 4581 
L 3503 0 
z
M 1159 1731 
Q 1159 1200 1306 963 
Q 1519 619 1900 619 
Q 2203 619 2415 876 
Q 2628 1134 2628 1647 
Q 2628 2219 2422 2470 
Q 2216 2722 1894 2722 
Q 1581 2722 1370 2473 
Q 1159 2225 1159 1731 
z
" transform="scale(0.015625)"/>
     </defs>
     <use xlink:href="#Arial-BoldMT-33"/>
     <use xlink:href="#Arial-BoldMT-2e" transform="translate(55.615234 0)"/>
     <use xlink:href="#Arial-BoldMT-20" transform="translate(83.398438 0)"/>
     <use xlink:href="#Arial-BoldMT-43" transform="translate(111.181641 0)"/>
     <use xlink:href="#Arial-BoldMT-61" transform="translate(183.398438 0)"/>
     <use xlink:href="#Arial-BoldMT-75" transform="translate(239.013672 0)"/>
     <use xlink:href="#Arial-BoldMT-73" transform="translate(300.097656 0)"/>
     <use xlink:href="#Arial-BoldMT-61" transform="translate(355.712891 0)"/>
     <use xlink:href="#Arial-BoldMT-6c" transform="translate(411.328125 0)"/>
     <use xlink:href="#Arial-BoldMT-20" transform="translate(439.111328 0)"/>
     <use xlink:href="#Arial-BoldMT-4d" transform="translate(466.894531 0)"/>
     <use xlink:href="#Arial-BoldMT-6f" transform="translate(550.195312 0)"/>
     <use xlink:href="#Arial-BoldMT-64" transform="translate(611.279297 0)"/>
     <use xlink:href="#Arial-BoldMT-65" transform="translate(672.363281 0)"/>
     <use xlink:href="#Arial-BoldMT-6c" transform="translate(727.978516 0)"/>
    </g>
   </g>
   <g id="text_6">
    <!-- Run TWFE Regression -->
    <g style="fill: #333333" transform="translate(508.754531 116.765422) scale(0.11 -0.11)">
     <defs>
      <path id="ArialMT-54" d="M 1659 0 
L 1659 4041 
L 150 4041 
L 150 4581 
L 3781 4581 
L 3781 4041 
L 2266 4041 
L 2266 0 
L 1659 0 
z
" transform="scale(0.015625)"/>
      <path id="ArialMT-73" d="M 197 991 
L 753 1078 
Q 800 744 1014 566 
Q 1228 388 1613 388 
Q 2000 388 2187 545 
Q 2375 703 2375 916 
Q 2375 1106 2209 1216 
Q 2094 1291 1634 1406 
Q 1016 1563 777 1677 
Q 538 1791 414 1992 
Q 291 2194 291 2438 
Q 291 2659 392 2848 
Q 494 3038 669 3163 
Q 800 3259 1026 3326 
Q 1253 3394 1513 3394 
Q 1903 3394 2198 3281 
Q 2494 3169 2634 2976 
Q 2775 2784 2828 2463 
L 2278 2388 
Q 2241 2644 2061 2787 
Q 1881 2931 1553 2931 
Q 1166 2931 1000 2803 
Q 834 2675 834 2503 
Q 834 2394 903 2306 
Q 972 2216 1119 2156 
Q 1203 2125 1616 2013 
Q 2213 1853 2448 1751 
Q 2684 1650 2818 1456 
Q 2953 1263 2953 975 
Q 2953 694 2789 445 
Q 2625 197 2315 61 
Q 2006 -75 1616 -75 
Q 969 -75 630 194 
Q 291 463 197 991 
z
" transform="scale(0.015625)"/>
     </defs>
     <use xlink:href="#ArialMT-52"/>
     <use xlink:href="#ArialMT-75" transform="translate(72.216797 0)"/>
     <use xlink:href="#ArialMT-6e" transform="translate(127.832031 0)"/>
     <use xlink:href="#ArialMT-20" transform="translate(183.447266 0)"/>
     <use xlink:href="#ArialMT-54" transform="translate(209.480469 0)"/>
     <use xlink:href="#ArialMT-57" transform="translate(270.564453 0)"/>
     <use xlink:href="#ArialMT-46" transform="translate(364.949219 0)"/>
     <use xlink:href="#ArialMT-45" transform="translate(426.033203 0)"/>
     <use xlink:href="#ArialMT-20" transform="translate(492.732422 0)"/>
     <use xlink:href="#ArialMT-52" transform="translate(520.515625 0)"/>
     <use xlink:href="#ArialMT-65" transform="translate(592.732422 0)"/>
     <use xlink:href="#ArialMT-67" transform="translate(648.347656 0)"/>
     <use xlink:href="#ArialMT-72" transform="translate(703.962891 0)"/>
     <use xlink:href="#ArialMT-65" transform="translate(737.263672 0)"/>
     <use xlink:href="#ArialMT-73" transform="translate(792.878906 0)"/>
     <use xlink:href="#ArialMT-73" transform="translate(842.878906 0)"/>
     <use xlink:href="#ArialMT-69" transform="translate(892.878906 0)"/>
     <use xlink:href="#ArialMT-6f" transform="translate(915.095703 0)"/>
     <use xlink:href="#ArialMT-6e" transform="translate(970.710938 0)"/>
    </g>
    <!-- Estimate Triple-Difference -->
    <g style="fill: #333333" transform="translate(502.027344 130.291297) scale(0.11 -0.11)">
     <defs>
      <path id="ArialMT-6d" d="M 422 0 
L 422 3319 
L 925 3319 
L 925 2853 
Q 1081 3097 1340 3245 
Q 1600 3394 1931 3394 
Q 2300 3394 2536 3241 
Q 2772 3088 2869 2813 
Q 3263 3394 3894 3394 
Q 4388 3394 4653 3120 
Q 4919 2847 4919 2278 
L 4919 0 
L 4359 0 
L 4359 2091 
Q 4359 2428 4304 2576 
Q 4250 2725 4106 2815 
Q 3963 2906 3769 2906 
Q 3419 2906 3187 2673 
Q 2956 2441 2956 1928 
L 2956 0 
L 2394 0 
L 2394 2156 
Q 2394 2531 2256 2718 
Q 2119 2906 1806 2906 
Q 1569 2906 1367 2781 
Q 1166 2656 1075 2415 
Q 984 2175 984 1722 
L 984 0 
L 422 0 
z
" transform="scale(0.015625)"/>
     </defs>
     <use xlink:href="#ArialMT-45"/>
     <use xlink:href="#ArialMT-73" transform="translate(66.699219 0)"/>
     <use xlink:href="#ArialMT-74" transform="translate(116.699219 0)"/>
     <use xlink:href="#ArialMT-69" transform="translate(144.482422 0)"/>
     <use xlink:href="#ArialMT-6d" transform="translate(166.699219 0)"/>
     <use xlink:href="#ArialMT-61" transform="translate(250 0)"/>
     <use xlink:href="#ArialMT-74" transform="translate(305.615234 0)"/>
     <use xlink:href="#ArialMT-65" transform="translate(333.398438 0)"/>
     <use xlink:href="#ArialMT-20" transform="translate(389.013672 0)"/>
     <use xlink:href="#ArialMT-54" transform="translate(415.046875 0)"/>
     <use xlink:href="#ArialMT-72" transform="translate(472.380859 0)"/>
     <use xlink:href="#ArialMT-69" transform="translate(505.681641 0)"/>
     <use xlink:href="#ArialMT-70" transform="translate(527.898438 0)"/>
     <use xlink:href="#ArialMT-6c" transform="translate(583.513672 0)"/>
     <use xlink:href="#ArialMT-65" transform="translate(605.730469 0)"/>
     <use xlink:href="#ArialMT-2d" transform="translate(661.345703 0)"/>
     <use xlink:href="#ArialMT-44" transform="translate(694.646484 0)"/>
     <use xlink:href="#ArialMT-69" transform="translate(766.863281 0)"/>
     <use xlink:href="#ArialMT-66" transform="translate(789.080078 0)"/>
     <use xlink:href="#ArialMT-66" transform="translate(815.113281 0)"/>
     <use xlink:href="#ArialMT-65" transform="translate(842.896484 0)"/>
     <use xlink:href="#ArialMT-72" transform="translate(898.511719 0)"/>
     <use xlink:href="#ArialMT-65" transform="translate(931.8125 0)"/>
     <use xlink:href="#ArialMT-6e" transform="translate(987.427734 0)"/>
     <use xlink:href="#ArialMT-63" transform="translate(1043.042969 0)"/>
     <use xlink:href="#ArialMT-65" transform="translate(1093.042969 0)"/>
    </g>
    <!-- (Treat*Post*LowWage) -->
    <g style="fill: #333333" transform="translate(509.371563 143.688266) scale(0.11 -0.11)">
     <defs>
      <path id="ArialMT-2a" d="M 200 3741 
L 344 4184 
Q 841 4009 1066 3881 
Q 1006 4447 1003 4659 
L 1456 4659 
Q 1447 4350 1384 3884 
Q 1706 4047 2122 4184 
L 2266 3741 
Q 1869 3609 1488 3566 
Q 1678 3400 2025 2975 
L 1650 2709 
Q 1469 2956 1222 3381 
Q 991 2941 816 2709 
L 447 2975 
Q 809 3422 966 3566 
Q 563 3644 200 3741 
z
" transform="scale(0.015625)"/>
     </defs>
     <use xlink:href="#ArialMT-28"/>
     <use xlink:href="#ArialMT-54" transform="translate(33.300781 0)"/>
     <use xlink:href="#ArialMT-72" transform="translate(90.634766 0)"/>
     <use xlink:href="#ArialMT-65" transform="translate(123.935547 0)"/>
     <use xlink:href="#ArialMT-61" transform="translate(179.550781 0)"/>
     <use xlink:href="#ArialMT-74" transform="translate(235.166016 0)"/>
     <use xlink:href="#ArialMT-2a" transform="translate(262.949219 0)"/>
     <use xlink:href="#ArialMT-50" transform="translate(301.865234 0)"/>
     <use xlink:href="#ArialMT-6f" transform="translate(368.564453 0)"/>
     <use xlink:href="#ArialMT-73" transform="translate(424.179688 0)"/>
     <use xlink:href="#ArialMT-74" transform="translate(474.179688 0)"/>
     <use xlink:href="#ArialMT-2a" transform="translate(501.962891 0)"/>
     <use xlink:href="#ArialMT-4c" transform="translate(540.878906 0)"/>
     <use xlink:href="#ArialMT-6f" transform="translate(596.494141 0)"/>
     <use xlink:href="#ArialMT-77" transform="translate(652.109375 0)"/>
     <use xlink:href="#ArialMT-57" transform="translate(724.326172 0)"/>
     <use xlink:href="#ArialMT-61" transform="translate(814.960938 0)"/>
     <use xlink:href="#ArialMT-67" transform="translate(870.576172 0)"/>
     <use xlink:href="#ArialMT-65" transform="translate(926.191406 0)"/>
     <use xlink:href="#ArialMT-29" transform="translate(981.806641 0)"/>
    </g>
   </g>
   <g id="patch_9">
    <path d="M 647.598 110.815625 
Q 687.96 110.815625 724.967898 110.815625 
" style="fill: none; stroke: #f96a1b; stroke-width: 3; stroke-linecap: round"/>
    <path d="M 717.767898 107.215625 
L 724.967898 110.815625 
L 717.767898 114.415625 
" style="fill: none; stroke: #f96a1b; stroke-width: 3; stroke-linecap: round"/>
   </g>
   <g id="text_7">
    <!-- 4. Validation -->
    <g transform="translate(772.794531 103.097469) scale(0.13 -0.13)">
     <defs>
      <path id="Arial-BoldMT-34" d="M 1994 0 
L 1994 922 
L 119 922 
L 119 1691 
L 2106 4600 
L 2844 4600 
L 2844 1694 
L 3413 1694 
L 3413 922 
L 2844 922 
L 2844 0 
L 1994 0 
z
M 1994 1694 
L 1994 3259 
L 941 1694 
L 1994 1694 
z
" transform="scale(0.015625)"/>
      <path id="Arial-BoldMT-56" d="M 1634 0 
L -3 4581 
L 1000 4581 
L 2159 1191 
L 3281 4581 
L 4263 4581 
L 2622 0 
L 1634 0 
z
" transform="scale(0.015625)"/>
     </defs>
     <use xlink:href="#Arial-BoldMT-34"/>
     <use xlink:href="#Arial-BoldMT-2e" transform="translate(55.615234 0)"/>
     <use xlink:href="#Arial-BoldMT-20" transform="translate(83.398438 0)"/>
     <use xlink:href="#Arial-BoldMT-56" transform="translate(111.181641 0)"/>
     <use xlink:href="#Arial-BoldMT-61" transform="translate(172.380859 0)"/>
     <use xlink:href="#Arial-BoldMT-6c" transform="translate(227.996094 0)"/>
     <use xlink:href="#Arial-BoldMT-69" transform="translate(255.779297 0)"/>
     <use xlink:href="#Arial-BoldMT-64" transform="translate(283.5625 0)"/>
     <use xlink:href="#Arial-BoldMT-61" transform="translate(344.646484 0)"/>
     <use xlink:href="#Arial-BoldMT-74" transform="translate(400.261719 0)"/>
     <use xlink:href="#Arial-BoldMT-69" transform="translate(433.5625 0)"/>
     <use xlink:href="#Arial-BoldMT-6f" transform="translate(461.345703 0)"/>
     <use xlink:href="#Arial-BoldMT-6e" transform="translate(522.429688 0)"/>
    </g>
   </g>
   <g id="text_8">
    <!-- Parallel Trends Test (Fig 5) -->
    <g style="fill: #333333" transform="translate(745.104141 123.530938) scale(0.11 -0.11)">
     <defs>
      <path id="ArialMT-35" d="M 266 1200 
L 856 1250 
Q 922 819 1161 601 
Q 1400 384 1738 384 
Q 2144 384 2425 690 
Q 2706 997 2706 1503 
Q 2706 1984 2436 2262 
Q 2166 2541 1728 2541 
Q 1456 2541 1237 2417 
Q 1019 2294 894 2097 
L 366 2166 
L 809 4519 
L 3088 4519 
L 3088 3981 
L 1259 3981 
L 1013 2750 
Q 1425 3038 1878 3038 
Q 2478 3038 2890 2622 
Q 3303 2206 3303 1553 
Q 3303 931 2941 478 
Q 2500 -78 1738 -78 
Q 1113 -78 717 272 
Q 322 622 266 1200 
z
" transform="scale(0.015625)"/>
     </defs>
     <use xlink:href="#ArialMT-50"/>
     <use xlink:href="#ArialMT-61" transform="translate(66.699219 0)"/>
     <use xlink:href="#ArialMT-72" transform="translate(122.314453 0)"/>
     <use xlink:href="#ArialMT-61" transform="translate(155.615234 0)"/>
     <use xlink:href="#ArialMT-6c" transform="translate(211.230469 0)"/>
     <use xlink:href="#ArialMT-6c" transform="translate(233.447266 0)"/>
     <use xlink:href="#ArialMT-65" transform="translate(255.664062 0)"/>
     <use xlink:href="#ArialMT-6c" transform="translate(311.279297 0)"/>
     <use xlink:href="#ArialMT-20" transform="translate(333.496094 0)"/>
     <use xlink:href="#ArialMT-54" transform="translate(359.529297 0)"/>
     <use xlink:href="#ArialMT-72" transform="translate(416.863281 0)"/>
     <use xlink:href="#ArialMT-65" transform="translate(450.164062 0)"/>
     <use xlink:href="#ArialMT-6e" transform="translate(505.779297 0)"/>
     <use xlink:href="#ArialMT-64" transform="translate(561.394531 0)"/>
     <use xlink:href="#ArialMT-73" transform="translate(617.009766 0)"/>
     <use xlink:href="#ArialMT-20" transform="translate(667.009766 0)"/>
     <use xlink:href="#ArialMT-54" transform="translate(693.042969 0)"/>
     <use xlink:href="#ArialMT-65" transform="translate(743.001953 0)"/>
     <use xlink:href="#ArialMT-73" transform="translate(798.617188 0)"/>
     <use xlink:href="#ArialMT-74" transform="translate(848.617188 0)"/>
     <use xlink:href="#ArialMT-20" transform="translate(876.400391 0)"/>
     <use xlink:href="#ArialMT-28" transform="translate(904.183594 0)"/>
     <use xlink:href="#ArialMT-46" transform="translate(937.484375 0)"/>
     <use xlink:href="#ArialMT-69" transform="translate(998.568359 0)"/>
     <use xlink:href="#ArialMT-67" transform="translate(1020.785156 0)"/>
     <use xlink:href="#ArialMT-20" transform="translate(1076.400391 0)"/>
     <use xlink:href="#ArialMT-35" transform="translate(1104.183594 0)"/>
     <use xlink:href="#ArialMT-29" transform="translate(1159.798828 0)"/>
    </g>
    <!-- Placebo Test (Fig 4) -->
    <g style="fill: #333333" transform="translate(761.912656 137.056813) scale(0.11 -0.11)">
     <defs>
      <path id="ArialMT-62" d="M 941 0 
L 419 0 
L 419 4581 
L 981 4581 
L 981 2947 
Q 1338 3394 1891 3394 
Q 2197 3394 2470 3270 
Q 2744 3147 2920 2923 
Q 3097 2700 3197 2384 
Q 3297 2069 3297 1709 
Q 3297 856 2875 390 
Q 2453 -75 1863 -75 
Q 1275 -75 941 416 
L 941 0 
z
M 934 1684 
Q 934 1088 1097 822 
Q 1363 388 1816 388 
Q 2184 388 2453 708 
Q 2722 1028 2722 1663 
Q 2722 2313 2464 2622 
Q 2206 2931 1841 2931 
Q 1472 2931 1203 2611 
Q 934 2291 934 1684 
z
" transform="scale(0.015625)"/>
      <path id="ArialMT-34" d="M 2069 0 
L 2069 1097 
L 81 1097 
L 81 1613 
L 2172 4581 
L 2631 4581 
L 2631 1613 
L 3250 1613 
L 3250 1097 
L 2631 1097 
L 2631 0 
L 2069 0 
z
M 2069 1613 
L 2069 3678 
L 634 1613 
L 2069 1613 
z
" transform="scale(0.015625)"/>
     </defs>
     <use xlink:href="#ArialMT-50"/>
     <use xlink:href="#ArialMT-6c" transform="translate(66.699219 0)"/>
     <use xlink:href="#ArialMT-61" transform="translate(88.916016 0)"/>
     <use xlink:href="#ArialMT-63" transform="translate(144.53125 0)"/>
     <use xlink:href="#ArialMT-65" transform="translate(194.53125 0)"/>
     <use xlink:href="#ArialMT-62" transform="translate(250.146484 0)"/>
     <use xlink:href="#ArialMT-6f" transform="translate(305.761719 0)"/>
     <use xlink:href="#ArialMT-20" transform="translate(361.376953 0)"/>
     <use xlink:href="#ArialMT-54" transform="translate(387.410156 0)"/>
     <use xlink:href="#ArialMT-65" transform="translate(437.369141 0)"/>
     <use xlink:href="#ArialMT-73" transform="translate(492.984375 0)"/>
     <use xlink:href="#ArialMT-74" transform="translate(542.984375 0)"/>
     <use xlink:href="#ArialMT-20" transform="translate(570.767578 0)"/>
     <use xlink:href="#ArialMT-28" transform="translate(598.550781 0)"/>
     <use xlink:href="#ArialMT-46" transform="translate(631.851562 0)"/>
     <use xlink:href="#ArialMT-69" transform="translate(692.935547 0)"/>
     <use xlink:href="#ArialMT-67" transform="translate(715.152344 0)"/>
     <use xlink:href="#ArialMT-20" transform="translate(770.767578 0)"/>
     <use xlink:href="#ArialMT-34" transform="translate(798.550781 0)"/>
     <use xlink:href="#ArialMT-29" transform="translate(854.166016 0)"/>
    </g>
   </g>
   <g id="patch_10">
    <path d="M 893.118 110.815625 
Q 922.32 110.815625 948.167898 110.815625 
" style="fill: none; stroke: #f96a1b; stroke-width: 3; stroke-linecap: round"/>
    <path d="M 940.967898 107.215625 
L 948.167898 110.815625 
L 940.967898 114.415625 
" style="fill: none; stroke: #f96a1b; stroke-width: 3; stroke-linecap: round"/>
   </g>
   <g id="text_9">
    <!-- 5. Conclusive Finding -->
    <g transform="translate(966.751641 103.091375) scale(0.13 -0.13)">
     <defs>
      <path id="Arial-BoldMT-35" d="M 284 1178 
L 1159 1269 
Q 1197 972 1381 798 
Q 1566 625 1806 625 
Q 2081 625 2272 848 
Q 2463 1072 2463 1522 
Q 2463 1944 2273 2155 
Q 2084 2366 1781 2366 
Q 1403 2366 1103 2031 
L 391 2134 
L 841 4519 
L 3163 4519 
L 3163 3697 
L 1506 3697 
L 1369 2919 
Q 1663 3066 1969 3066 
Q 2553 3066 2959 2641 
Q 3366 2216 3366 1538 
Q 3366 972 3038 528 
Q 2591 -78 1797 -78 
Q 1163 -78 763 262 
Q 363 603 284 1178 
z
" transform="scale(0.015625)"/>
      <path id="Arial-BoldMT-63" d="M 3353 2338 
L 2488 2181 
Q 2444 2441 2289 2572 
Q 2134 2703 1888 2703 
Q 1559 2703 1364 2476 
Q 1169 2250 1169 1719 
Q 1169 1128 1367 884 
Q 1566 641 1900 641 
Q 2150 641 2309 783 
Q 2469 925 2534 1272 
L 3397 1125 
Q 3263 531 2881 228 
Q 2500 -75 1859 -75 
Q 1131 -75 698 384 
Q 266 844 266 1656 
Q 266 2478 700 2936 
Q 1134 3394 1875 3394 
Q 2481 3394 2839 3133 
Q 3197 2872 3353 2338 
z
" transform="scale(0.015625)"/>
      <path id="Arial-BoldMT-76" d="M 1372 0 
L 34 3319 
L 956 3319 
L 1581 1625 
L 1763 1059 
Q 1834 1275 1853 1344 
Q 1897 1484 1947 1625 
L 2578 3319 
L 3481 3319 
L 2163 0 
L 1372 0 
z
" transform="scale(0.015625)"/>
      <path id="Arial-BoldMT-46" d="M 472 0 
L 472 4581 
L 3613 4581 
L 3613 3806 
L 1397 3806 
L 1397 2722 
L 3309 2722 
L 3309 1947 
L 1397 1947 
L 1397 0 
L 472 0 
z
" transform="scale(0.015625)"/>
     </defs>
     <use xlink:href="#Arial-BoldMT-35"/>
     <use xlink:href="#Arial-BoldMT-2e" transform="translate(55.615234 0)"/>
     <use xlink:href="#Arial-BoldMT-20" transform="translate(83.398438 0)"/>
     <use xlink:href="#Arial-BoldMT-43" transform="translate(111.181641 0)"/>
     <use xlink:href="#Arial-BoldMT-6f" transform="translate(183.398438 0)"/>
     <use xlink:href="#Arial-BoldMT-6e" transform="translate(244.482422 0)"/>
     <use xlink:href="#Arial-BoldMT-63" transform="translate(305.566406 0)"/>
     <use xlink:href="#Arial-BoldMT-6c" transform="translate(361.181641 0)"/>
     <use xlink:href="#Arial-BoldMT-75" transform="translate(388.964844 0)"/>
     <use xlink:href="#Arial-BoldMT-73" transform="translate(450.048828 0)"/>
     <use xlink:href="#Arial-BoldMT-69" transform="translate(505.664062 0)"/>
     <use xlink:href="#Arial-BoldMT-76" transform="translate(533.447266 0)"/>
     <use xlink:href="#Arial-BoldMT-65" transform="translate(589.0625 0)"/>
     <use xlink:href="#Arial-BoldMT-20" transform="translate(644.677734 0)"/>
     <use xlink:href="#Arial-BoldMT-46" transform="translate(672.460938 0)"/>
     <use xlink:href="#Arial-BoldMT-69" transform="translate(733.544922 0)"/>
     <use xlink:href="#Arial-BoldMT-6e" transform="translate(761.328125 0)"/>
     <use xlink:href="#Arial-BoldMT-64" transform="translate(822.412109 0)"/>
     <use xlink:href="#Arial-BoldMT-69" transform="translate(883.496094 0)"/>
     <use xlink:href="#Arial-BoldMT-6e" transform="translate(911.279297 0)"/>
     <use xlink:href="#Arial-BoldMT-67" transform="translate(972.363281 0)"/>
    </g>
   </g>
   <g id="text_10">
    <!-- Validated Causal Effect -->
    <g style="fill: #333333" transform="translate(977.251953 123.528359) scale(0.11 -0.11)">
     <defs>
      <path id="ArialMT-56" d="M 1803 0 
L 28 4581 
L 684 4581 
L 1875 1253 
Q 2019 853 2116 503 
Q 2222 878 2363 1253 
L 3600 4581 
L 4219 4581 
L 2425 0 
L 1803 0 
z
" transform="scale(0.015625)"/>
     </defs>
     <use xlink:href="#ArialMT-56"/>
     <use xlink:href="#ArialMT-61" transform="translate(59.324219 0)"/>
     <use xlink:href="#ArialMT-6c" transform="translate(114.939453 0)"/>
     <use xlink:href="#ArialMT-69" transform="translate(137.15625 0)"/>
     <use xlink:href="#ArialMT-64" transform="translate(159.373047 0)"/>
     <use xlink:href="#ArialMT-61" transform="translate(214.988281 0)"/>
     <use xlink:href="#ArialMT-74" transform="translate(270.603516 0)"/>
     <use xlink:href="#ArialMT-65" transform="translate(298.386719 0)"/>
     <use xlink:href="#ArialMT-64" transform="translate(354.001953 0)"/>
     <use xlink:href="#ArialMT-20" transform="translate(409.617188 0)"/>
     <use xlink:href="#ArialMT-43" transform="translate(437.400391 0)"/>
     <use xlink:href="#ArialMT-61" transform="translate(509.617188 0)"/>
     <use xlink:href="#ArialMT-75" transform="translate(565.232422 0)"/>
     <use xlink:href="#ArialMT-73" transform="translate(620.847656 0)"/>
     <use xlink:href="#ArialMT-61" transform="translate(670.847656 0)"/>
     <use xlink:href="#ArialMT-6c" transform="translate(726.462891 0)"/>
     <use xlink:href="#ArialMT-20" transform="translate(748.679688 0)"/>
     <use xlink:href="#ArialMT-45" transform="translate(776.462891 0)"/>
     <use xlink:href="#ArialMT-66" transform="translate(843.162109 0)"/>
     <use xlink:href="#ArialMT-66" transform="translate(869.195312 0)"/>
     <use xlink:href="#ArialMT-65" transform="translate(896.978516 0)"/>
     <use xlink:href="#ArialMT-63" transform="translate(952.59375 0)"/>
     <use xlink:href="#ArialMT-74" transform="translate(1002.59375 0)"/>
    </g>
    <!-- (p = 0.035) -->
    <g style="fill: #333333" transform="translate(1007.168516 136.925328) scale(0.11 -0.11)">
     <defs>
      <path id="ArialMT-3d" d="M 3381 2694 
L 356 2694 
L 356 3219 
L 3381 3219 
L 3381 2694 
z
M 3381 1303 
L 356 1303 
L 356 1828 
L 3381 1828 
L 3381 1303 
z
" transform="scale(0.015625)"/>
      <path id="ArialMT-2e" d="M 581 0 
L 581 641 
L 1222 641 
L 1222 0 
L 581 0 
z
" transform="scale(0.015625)"/>
      <path id="ArialMT-33" d="M 269 1209 
L 831 1284 
Q 928 806 1161 595 
Q 1394 384 1728 384 
Q 2125 384 2398 659 
Q 2672 934 2672 1341 
Q 2672 1728 2419 1979 
Q 2166 2231 1775 2231 
Q 1616 2231 1378 2169 
L 1441 2663 
Q 1497 2656 1531 2656 
Q 1891 2656 2178 2843 
Q 2466 3031 2466 3422 
Q 2466 3731 2256 3934 
Q 2047 4138 1716 4138 
Q 1388 4138 1169 3931 
Q 950 3725 888 3313 
L 325 3413 
Q 428 3978 793 4289 
Q 1159 4600 1703 4600 
Q 2078 4600 2393 4439 
Q 2709 4278 2876 4000 
Q 3044 3722 3044 3409 
Q 3044 3113 2884 2869 
Q 2725 2625 2413 2481 
Q 2819 2388 3044 2092 
Q 3269 1797 3269 1353 
Q 3269 753 2831 336 
Q 2394 -81 1725 -81 
Q 1122 -81 723 278 
Q 325 638 269 1209 
z
" transform="scale(0.015625)"/>
     </defs>
     <use xlink:href="#ArialMT-28"/>
     <use xlink:href="#ArialMT-70" transform="translate(33.300781 0)"/>
     <use xlink:href="#ArialMT-20" transform="translate(88.916016 0)"/>
     <use xlink:href="#ArialMT-3d" transform="translate(116.699219 0)"/>
     <use xlink:href="#ArialMT-20" transform="translate(175.097656 0)"/>
     <use xlink:href="#ArialMT-30" transform="translate(202.880859 0)"/>
     <use xlink:href="#ArialMT-2e" transform="translate(258.496094 0)"/>
     <use xlink:href="#ArialMT-30" transform="translate(286.279297 0)"/>
     <use xlink:href="#ArialMT-33" transform="translate(341.894531 0)"/>
     <use xlink:href="#ArialMT-35" transform="translate(397.509766 0)"/>
     <use xlink:href="#ArialMT-29" transform="translate(453.125 0)"/>
    </g>
   </g>
   <g id="text_11">
    <!-- Methodology Pipeline -->
    <g style="fill: #262626" transform="translate(7.2 21.515625) scale(0.2 -0.2)">
     <defs>
      <path id="Arial-BoldMT-68" d="M 1334 4581 
L 1334 2897 
Q 1759 3394 2350 3394 
Q 2653 3394 2897 3281 
Q 3141 3169 3264 2994 
Q 3388 2819 3433 2606 
Q 3478 2394 3478 1947 
L 3478 0 
L 2600 0 
L 2600 1753 
Q 2600 2275 2550 2415 
Q 2500 2556 2373 2639 
Q 2247 2722 2056 2722 
Q 1838 2722 1666 2615 
Q 1494 2509 1414 2295 
Q 1334 2081 1334 1663 
L 1334 0 
L 456 0 
L 456 4581 
L 1334 4581 
z
" transform="scale(0.015625)"/>
      <path id="Arial-BoldMT-79" d="M 44 3319 
L 978 3319 
L 1772 963 
L 2547 3319 
L 3456 3319 
L 2284 125 
L 2075 -453 
Q 1959 -744 1854 -897 
Q 1750 -1050 1614 -1145 
Q 1478 -1241 1279 -1294 
Q 1081 -1347 831 -1347 
Q 578 -1347 334 -1294 
L 256 -606 
Q 463 -647 628 -647 
Q 934 -647 1081 -467 
Q 1228 -288 1306 -9 
L 44 3319 
z
" transform="scale(0.015625)"/>
      <path id="Arial-BoldMT-50" d="M 466 0 
L 466 4581 
L 1950 4581 
Q 2794 4581 3050 4513 
Q 3444 4409 3709 4064 
Q 3975 3719 3975 3172 
Q 3975 2750 3822 2462 
Q 3669 2175 3433 2011 
Q 3197 1847 2953 1794 
Q 2622 1728 1994 1728 
L 1391 1728 
L 1391 0 
L 466 0 
z
M 1391 3806 
L 1391 2506 
L 1897 2506 
Q 2444 2506 2628 2578 
Q 2813 2650 2917 2803 
Q 3022 2956 3022 3159 
Q 3022 3409 2875 3571 
Q 2728 3734 2503 3775 
Q 2338 3806 1838 3806 
L 1391 3806 
z
" transform="scale(0.015625)"/>
      <path id="Arial-BoldMT-70" d="M 434 3319 
L 1253 3319 
L 1253 2831 
Q 1413 3081 1684 3237 
Q 1956 3394 2288 3394 
Q 2866 3394 3269 2941 
Q 3672 2488 3672 1678 
Q 3672 847 3265 386 
Q 2859 -75 2281 -75 
Q 2006 -75 1782 34 
Q 1559 144 1313 409 
L 1313 -1263 
L 434 -1263 
L 434 3319 
z
M 1303 1716 
Q 1303 1156 1525 889 
Q 1747 622 2066 622 
Q 2372 622 2575 867 
Q 2778 1113 2778 1672 
Q 2778 2194 2568 2447 
Q 2359 2700 2050 2700 
Q 1728 2700 1515 2451 
Q 1303 2203 1303 1716 
z
" transform="scale(0.015625)"/>
     </defs>
     <use xlink:href="#Arial-BoldMT-4d"/>
     <use xlink:href="#Arial-BoldMT-65" transform="translate(83.300781 0)"/>
     <use xlink:href="#Arial-BoldMT-74" transform="translate(138.916016 0)"/>
     <use xlink:href="#Arial-BoldMT-68" transform="translate(172.216797 0)"/>
     <use xlink:href="#Arial-BoldMT-6f" transform="translate(233.300781 0)"/>
     <use xlink:href="#Arial-BoldMT-64" transform="translate(294.384766 0)"/>
     <use xlink:href="#Arial-BoldMT-6f" transform="translate(355.46875 0)"/>
     <use xlink:href="#Arial-BoldMT-6c" transform="translate(416.552734 0)"/>
     <use xlink:href="#Arial-BoldMT-6f" transform="translate(444.335938 0)"/>
     <use xlink:href="#Arial-BoldMT-67" transform="translate(505.419922 0)"/>
     <use xlink:href="#Arial-BoldMT-79" transform="translate(566.503906 0)"/>
     <use xlink:href="#Arial-BoldMT-20" transform="translate(622.119141 0)"/>
     <use xlink:href="#Arial-BoldMT-50" transform="translate(649.902344 0)"/>
     <use xlink:href="#Arial-BoldMT-69" transform="translate(716.601562 0)"/>
     <use xlink:href="#Arial-BoldMT-70" transform="translate(744.384766 0)"/>
     <use xlink:href="#Arial-BoldMT-65" transform="translate(805.46875 0)"/>
     <use xlink:href="#Arial-BoldMT-6c" transform="translate(861.083984 0)"/>
     <use xlink:href="#Arial-BoldMT-69" transform="translate(888.867188 0)"/>
     <use xlink:href="#Arial-BoldMT-6e" transform="translate(916.650391 0)"/>
     <use xlink:href="#Arial-BoldMT-65" transform="translate(977.734375 0)"/>
    </g>
   </g>
  </g>
 </g>
 <defs>
  <clipPath id="p70d0ec9183">
   <rect x="7.2" y="41.515625" width="1116" height="138.6"/>
  </clipPath>
 </defs>
</svg>
